<svg width="105" height="105" viewBox="0 0 105 105" fill="none" xmlns="http://www.w3.org/2000/svg">
<g clip-path="url(#clip0_194_718860)">
<path d="M94.1884 105H10.8116C4.84255 105 0 100.157 0 94.1884V10.8116C0 4.84255 4.84255 0 10.8116 0H94.1884C100.157 0 105 4.84255 105 10.8116V94.1884C105 100.157 100.157 105 94.1884 105Z" fill="#00BE40"/>
<path d="M85.9516 66.9765H19.1434V72.2872H85.9516V66.9765Z" fill="white"/>
<path d="M38.2064 40.4888V35.0829H19.1434V60.3125H25.8147V51.337H36.5678V45.9311H25.8147V40.4888H38.2064Z" fill="white"/>
<path d="M57.7815 47.2259C60.4441 45.997 61.8559 44.0512 61.8559 41.6006C61.8559 37.5262 58.8275 35.0756 53.7436 35.0756H40.8398V60.3052H53.8826C59.4347 60.3052 62.7484 57.6718 62.7484 53.2023C62.7557 50.3275 60.9196 48.1622 57.7815 47.2259ZM47.3722 40.2035H52.5293C54.4019 40.2035 55.4114 41.0666 55.4114 42.654C55.4114 44.2414 54.4092 45.1045 52.5293 45.1045H47.3722V40.2035ZM52.9535 55.192H47.3649V50.1812H53.0194C54.892 50.1812 55.9381 51.0809 55.9381 52.778C55.9454 54.3654 54.8993 55.192 52.9535 55.192Z" fill="white"/>
<path d="M78.366 44.9875L75.3302 44.5486C72.3311 44.1097 71.4533 43.3782 71.4533 41.9883C71.4533 40.5985 72.6237 39.6475 75.2205 39.6475C77.6271 39.6475 78.8049 40.5326 79.3754 42.7271L85.7176 41.9079C84.7812 36.9483 81.2188 34.5343 75.4034 34.5343C68.893 34.5343 64.6137 37.7822 64.6137 42.7564C64.6137 47.0357 67.2105 49.5228 72.5139 50.2543L75.696 50.6932C79.0609 51.1687 79.8655 51.9368 79.8655 53.3998C79.8655 54.8628 78.622 55.7406 75.6594 55.7406C73.5454 55.7406 71.5703 54.6506 70.8754 52.383L64.2699 53.3705C65.3379 58.513 69.2441 60.8538 75.4765 60.8538C82.5282 60.8538 86.6978 57.8254 86.6978 52.6683C86.7051 48.1695 84.1448 45.8287 78.366 44.9875Z" fill="white"/>
</g>
<defs>
<clipPath id="clip0_194_718860">
<rect width="105" height="105" fill="white"/>
</clipPath>
</defs>
</svg>
